<svg width="306" height="34" viewBox="0 0 306 34" fill="none" xmlns="http://www.w3.org/2000/svg">
<path d="M20.9091 12.3281C20.7003 11.6023 20.407 10.9609 20.0291 10.4041C19.6513 9.83736 19.1889 9.36009 18.642 8.9723C18.1051 8.57457 17.4886 8.27131 16.7926 8.0625C16.1065 7.85369 15.3459 7.74929 14.5107 7.74929C12.9496 7.74929 11.5774 8.13707 10.3942 8.91264C9.22088 9.68821 8.30611 10.8168 7.64986 12.2983C6.99361 13.7699 6.66548 15.5696 6.66548 17.6974C6.66548 19.8253 6.98864 21.6349 7.63494 23.1264C8.28125 24.6179 9.19602 25.7564 10.3793 26.5419C11.5625 27.3175 12.9595 27.7053 14.5703 27.7053C16.032 27.7053 17.2798 27.4467 18.3139 26.9297C19.358 26.4027 20.1534 25.6619 20.7003 24.7074C21.2571 23.7528 21.5355 22.6243 21.5355 21.3217L22.848 21.5156H14.973V16.6534H27.755V20.5014C27.755 23.1861 27.1882 25.4929 26.0547 27.4219C24.9212 29.3409 23.3601 30.8224 21.3714 31.8665C19.3828 32.9006 17.1058 33.4176 14.5405 33.4176C11.6768 33.4176 9.16122 32.7862 6.99361 31.5234C4.82599 30.2507 3.13565 28.446 1.92259 26.1094C0.71946 23.7628 0.117898 20.9787 0.117898 17.7571C0.117898 15.2812 0.475852 13.0739 1.19176 11.1349C1.91761 9.18608 2.93182 7.53551 4.23438 6.18324C5.53693 4.83096 7.05327 3.80185 8.78338 3.09588C10.5135 2.38991 12.3878 2.03693 14.4062 2.03693C16.1364 2.03693 17.7472 2.29048 19.2386 2.79758C20.7301 3.29474 22.0526 4.00071 23.206 4.91548C24.3693 5.83025 25.3189 6.91903 26.0547 8.18182C26.7905 9.43466 27.2628 10.8168 27.4716 12.3281H20.9091ZM39.0194 33.4325C37.5577 33.4325 36.2551 33.179 35.1117 32.6719C33.9682 32.1548 33.0634 31.3942 32.3972 30.3899C31.7409 29.3757 31.4128 28.1129 31.4128 26.6016C31.4128 25.3288 31.6465 24.2599 32.1138 23.3949C32.5811 22.5298 33.2175 21.8338 34.0229 21.3068C34.8283 20.7798 35.7431 20.3821 36.7672 20.1136C37.8013 19.8452 38.8851 19.6562 40.0186 19.5469C41.351 19.4077 42.4249 19.2784 43.2402 19.1591C44.0556 19.0298 44.6472 18.8409 45.0151 18.5923C45.383 18.3437 45.5669 17.9759 45.5669 17.4886V17.3991C45.5669 16.4545 45.2686 15.7237 44.6721 15.2067C44.0854 14.6896 43.2502 14.4311 42.1664 14.4311C41.0229 14.4311 40.1131 14.6847 39.437 15.1918C38.7608 15.6889 38.3134 16.3153 38.0946 17.071L32.2182 16.5938C32.5165 15.2017 33.1032 13.9986 33.9782 12.9844C34.8532 11.9602 35.9817 11.1747 37.3638 10.6278C38.7559 10.071 40.3667 9.79261 42.1962 9.79261C43.4689 9.79261 44.687 9.94176 45.8503 10.2401C47.0236 10.5384 48.0627 11.0007 48.9675 11.6271C49.8823 12.2536 50.6032 13.0589 51.1301 14.0433C51.6571 15.0178 51.9206 16.1861 51.9206 17.5483V33H45.8951V29.8232H45.7161C45.3482 30.5391 44.856 31.1705 44.2395 31.7173C43.623 32.2543 42.8823 32.6768 42.0172 32.9851C41.1522 33.2834 40.1529 33.4325 39.0194 33.4325ZM40.839 29.0476C41.7736 29.0476 42.5989 28.8636 43.3148 28.4957C44.0307 28.1179 44.5925 27.6108 45.0002 26.9744C45.4078 26.3381 45.6117 25.6172 45.6117 24.8118V22.3807C45.4128 22.5099 45.1394 22.6293 44.7914 22.7386C44.4533 22.8381 44.0705 22.9325 43.6429 23.022C43.2154 23.1016 42.7878 23.1761 42.3603 23.2457C41.9327 23.3054 41.5449 23.3601 41.1969 23.4098C40.4512 23.5192 39.7999 23.6932 39.2431 23.9318C38.6863 24.1705 38.2537 24.4936 37.9455 24.9013C37.6373 25.299 37.4831 25.7962 37.4831 26.3928C37.4831 27.2578 37.7963 27.919 38.4228 28.3764C39.0591 28.8239 39.8645 29.0476 40.839 29.0476ZM63.2037 2.45454V33H56.85V2.45454H63.2037ZM74.826 33.4325C73.3643 33.4325 72.0618 33.179 70.9183 32.6719C69.7749 32.1548 68.87 31.3942 68.2038 30.3899C67.5476 29.3757 67.2195 28.1129 67.2195 26.6016C67.2195 25.3288 67.4531 24.2599 67.9205 23.3949C68.3878 22.5298 69.0241 21.8338 69.8295 21.3068C70.6349 20.7798 71.5497 20.3821 72.5739 20.1136C73.608 19.8452 74.6918 19.6562 75.8253 19.5469C77.1577 19.4077 78.2315 19.2784 79.0469 19.1591C79.8622 19.0298 80.4538 18.8409 80.8217 18.5923C81.1896 18.3437 81.3736 17.9759 81.3736 17.4886V17.3991C81.3736 16.4545 81.0753 15.7237 80.4787 15.2067C79.892 14.6896 79.0568 14.4311 77.973 14.4311C76.8295 14.4311 75.9197 14.6847 75.2436 15.1918C74.5675 15.6889 74.12 16.3153 73.9013 17.071L68.0249 16.5938C68.3232 15.2017 68.9098 13.9986 69.7848 12.9844C70.6598 11.9602 71.7884 11.1747 73.1705 10.6278C74.5625 10.071 76.1733 9.79261 78.0028 9.79261C79.2756 9.79261 80.4936 9.94176 81.657 10.2401C82.8303 10.5384 83.8693 11.0007 84.7741 11.6271C85.6889 12.2536 86.4098 13.0589 86.9368 14.0433C87.4638 15.0178 87.7273 16.1861 87.7273 17.5483V33H81.7017V29.8232H81.5227C81.1548 30.5391 80.6626 31.1705 80.0462 31.7173C79.4297 32.2543 78.6889 32.6768 77.8239 32.9851C76.9588 33.2834 75.9595 33.4325 74.826 33.4325ZM76.6456 29.0476C77.5803 29.0476 78.4055 28.8636 79.1214 28.4957C79.8374 28.1179 80.3991 27.6108 80.8068 26.9744C81.2145 26.3381 81.4183 25.6172 81.4183 24.8118V22.3807C81.2195 22.5099 80.946 22.6293 80.598 22.7386C80.2599 22.8381 79.8771 22.9325 79.4496 23.022C79.022 23.1016 78.5945 23.1761 78.1669 23.2457C77.7393 23.3054 77.3516 23.3601 77.0036 23.4098C76.2578 23.5192 75.6065 23.6932 75.0497 23.9318C74.4929 24.1705 74.0604 24.4936 73.7521 24.9013C73.4439 25.299 73.2898 25.7962 73.2898 26.3928C73.2898 27.2578 73.603 27.919 74.2294 28.3764C74.8658 28.8239 75.6712 29.0476 76.6456 29.0476ZM75.9595 7.13778L79.1214 0.351562H84.9979L80.4489 7.13778H75.9595ZM97.9663 10.0909L102.172 18.1001L106.483 10.0909H113L106.363 21.5455L113.179 33H106.691L102.172 25.0803L97.7276 33H91.1651L97.9663 21.5455L91.4038 10.0909H97.9663ZM116.774 33V10.0909H123.127V33H116.774ZM119.966 7.13778C119.021 7.13778 118.211 6.82457 117.534 6.19815C116.868 5.56179 116.535 4.80114 116.535 3.91619C116.535 3.04119 116.868 2.29048 117.534 1.66406C118.211 1.0277 119.021 0.709515 119.966 0.709515C120.91 0.709515 121.716 1.0277 122.382 1.66406C123.058 2.29048 123.396 3.04119 123.396 3.91619C123.396 4.80114 123.058 5.56179 122.382 6.19815C121.716 6.82457 120.91 7.13778 119.966 7.13778ZM134.75 33.4325C133.288 33.4325 131.986 33.179 130.842 32.6719C129.699 32.1548 128.794 31.3942 128.128 30.3899C127.471 29.3757 127.143 28.1129 127.143 26.6016C127.143 25.3288 127.377 24.2599 127.844 23.3949C128.312 22.5298 128.948 21.8338 129.753 21.3068C130.559 20.7798 131.474 20.3821 132.498 20.1136C133.532 19.8452 134.616 19.6562 135.749 19.5469C137.081 19.4077 138.155 19.2784 138.971 19.1591C139.786 19.0298 140.378 18.8409 140.746 18.5923C141.113 18.3437 141.297 17.9759 141.297 17.4886V17.3991C141.297 16.4545 140.999 15.7237 140.403 15.2067C139.816 14.6896 138.981 14.4311 137.897 14.4311C136.753 14.4311 135.844 14.6847 135.167 15.1918C134.491 15.6889 134.044 16.3153 133.825 17.071L127.949 16.5938C128.247 15.2017 128.834 13.9986 129.709 12.9844C130.584 11.9602 131.712 11.1747 133.094 10.6278C134.486 10.071 136.097 9.79261 137.927 9.79261C139.199 9.79261 140.417 9.94176 141.581 10.2401C142.754 10.5384 143.793 11.0007 144.698 11.6271C145.613 12.2536 146.334 13.0589 146.861 14.0433C147.388 15.0178 147.651 16.1861 147.651 17.5483V33H141.626V29.8232H141.447C141.079 30.5391 140.586 31.1705 139.97 31.7173C139.354 32.2543 138.613 32.6768 137.748 32.9851C136.883 33.2834 135.883 33.4325 134.75 33.4325ZM136.569 29.0476C137.504 29.0476 138.329 28.8636 139.045 28.4957C139.761 28.1179 140.323 27.6108 140.731 26.9744C141.138 26.3381 141.342 25.6172 141.342 24.8118V22.3807C141.143 22.5099 140.87 22.6293 140.522 22.7386C140.184 22.8381 139.801 22.9325 139.373 23.022C138.946 23.1016 138.518 23.1761 138.091 23.2457C137.663 23.3054 137.275 23.3601 136.927 23.4098C136.182 23.5192 135.53 23.6932 134.974 23.9318C134.417 24.1705 133.984 24.4936 133.676 24.9013C133.368 25.299 133.214 25.7962 133.214 26.3928C133.214 27.2578 133.527 27.919 134.153 28.3764C134.79 28.8239 135.595 29.0476 136.569 29.0476ZM162.42 2.45454H170.385L178.797 22.9773H179.155L187.567 2.45454H195.531V33H189.267V13.1186H189.013L181.109 32.8509H176.843L168.938 13.044H168.685V33H162.42V2.45454ZM211.084 33.4474C208.767 33.4474 206.763 32.9553 205.073 31.9709C203.393 30.9766 202.095 29.5945 201.18 27.8246C200.265 26.0447 199.808 23.9815 199.808 21.6349C199.808 19.2685 200.265 17.2003 201.18 15.4304C202.095 13.6506 203.393 12.2685 205.073 11.2841C206.763 10.2898 208.767 9.79261 211.084 9.79261C213.4 9.79261 215.399 10.2898 217.079 11.2841C218.77 12.2685 220.072 13.6506 220.987 15.4304C221.902 17.2003 222.359 19.2685 222.359 21.6349C222.359 23.9815 221.902 26.0447 220.987 27.8246C220.072 29.5945 218.77 30.9766 217.079 31.9709C215.399 32.9553 213.4 33.4474 211.084 33.4474ZM211.113 28.5256C212.167 28.5256 213.047 28.2273 213.753 27.6307C214.459 27.0241 214.991 26.1989 215.349 25.1548C215.717 24.1108 215.901 22.9226 215.901 21.5902C215.901 20.2578 215.717 19.0696 215.349 18.0256C214.991 16.9815 214.459 16.1562 213.753 15.5497C213.047 14.9432 212.167 14.6399 211.113 14.6399C210.05 14.6399 209.155 14.9432 208.429 15.5497C207.713 16.1562 207.171 16.9815 206.803 18.0256C206.445 19.0696 206.266 20.2578 206.266 21.5902C206.266 22.9226 206.445 24.1108 206.803 25.1548C207.171 26.1989 207.713 27.0241 208.429 27.6307C209.155 28.2273 210.05 28.5256 211.113 28.5256ZM238.676 10.0909V14.8636H224.88V10.0909H238.676ZM228.012 4.60227H234.366V25.9602C234.366 26.5469 234.455 27.0043 234.634 27.3324C234.813 27.6506 235.062 27.8743 235.38 28.0036C235.708 28.1328 236.086 28.1974 236.513 28.1974C236.812 28.1974 237.11 28.1726 237.408 28.1229C237.706 28.0632 237.935 28.0185 238.094 27.9886L239.094 32.7166C238.775 32.8161 238.328 32.9304 237.751 33.0597C237.175 33.1989 236.474 33.2834 235.648 33.3132C234.117 33.3729 232.775 33.169 231.621 32.7017C230.478 32.2344 229.588 31.5085 228.952 30.5241C228.315 29.5398 228.002 28.2969 228.012 26.7955V4.60227ZM252.92 33.4474C250.603 33.4474 248.599 32.9553 246.909 31.9709C245.229 30.9766 243.931 29.5945 243.016 27.8246C242.101 26.0447 241.644 23.9815 241.644 21.6349C241.644 19.2685 242.101 17.2003 243.016 15.4304C243.931 13.6506 245.229 12.2685 246.909 11.2841C248.599 10.2898 250.603 9.79261 252.92 9.79261C255.236 9.79261 257.235 10.2898 258.915 11.2841C260.606 12.2685 261.908 13.6506 262.823 15.4304C263.738 17.2003 264.195 19.2685 264.195 21.6349C264.195 23.9815 263.738 26.0447 262.823 27.8246C261.908 29.5945 260.606 30.9766 258.915 31.9709C257.235 32.9553 255.236 33.4474 252.92 33.4474ZM252.949 28.5256C254.003 28.5256 254.883 28.2273 255.589 27.6307C256.295 27.0241 256.827 26.1989 257.185 25.1548C257.553 24.1108 257.737 22.9226 257.737 21.5902C257.737 20.2578 257.553 19.0696 257.185 18.0256C256.827 16.9815 256.295 16.1562 255.589 15.5497C254.883 14.9432 254.003 14.6399 252.949 14.6399C251.885 14.6399 250.991 14.9432 250.265 15.5497C249.549 16.1562 249.007 16.9815 248.639 18.0256C248.281 19.0696 248.102 20.2578 248.102 21.5902C248.102 22.9226 248.281 24.1108 248.639 25.1548C249.007 26.1989 249.549 27.0241 250.265 27.6307C250.991 28.2273 251.885 28.5256 252.949 28.5256ZM268.327 33V10.0909H274.486V14.0881H274.725C275.143 12.6662 275.844 11.5923 276.828 10.8665C277.812 10.1307 278.946 9.76278 280.229 9.76278C280.547 9.76278 280.89 9.78267 281.258 9.82244C281.626 9.86222 281.949 9.9169 282.227 9.9865V15.6243C281.929 15.5348 281.516 15.4553 280.989 15.3857C280.462 15.3161 279.98 15.2812 279.542 15.2812C278.608 15.2812 277.773 15.4851 277.037 15.8928C276.311 16.2905 275.734 16.8473 275.307 17.5632C274.889 18.2791 274.68 19.1044 274.68 20.0391V33H268.327ZM304.573 16.6236L298.756 16.9815C298.657 16.4844 298.443 16.0369 298.115 15.6392C297.787 15.2315 297.354 14.9084 296.817 14.6697C296.29 14.4212 295.659 14.2969 294.923 14.2969C293.939 14.2969 293.109 14.5057 292.433 14.9233C291.756 15.331 291.418 15.8778 291.418 16.5639C291.418 17.1108 291.637 17.5732 292.075 17.951C292.512 18.3288 293.263 18.6321 294.327 18.8608L298.473 19.696C300.7 20.1534 302.361 20.8892 303.455 21.9034C304.548 22.9176 305.095 24.25 305.095 25.9006C305.095 27.402 304.653 28.7195 303.768 29.853C302.893 30.9865 301.69 31.8714 300.158 32.5078C298.637 33.1342 296.882 33.4474 294.893 33.4474C291.861 33.4474 289.445 32.8161 287.645 31.5533C285.855 30.2805 284.806 28.5504 284.498 26.3629L290.747 26.0348C290.936 26.9595 291.393 27.6655 292.119 28.1527C292.845 28.63 293.775 28.8686 294.908 28.8686C296.022 28.8686 296.917 28.6548 297.593 28.2273C298.279 27.7898 298.627 27.228 298.637 26.5419C298.627 25.9652 298.384 25.4929 297.906 25.125C297.429 24.7472 296.693 24.4588 295.699 24.2599L291.732 23.4695C289.494 23.022 287.829 22.2464 286.735 21.1428C285.651 20.0391 285.109 18.6321 285.109 16.9219C285.109 15.4503 285.507 14.1825 286.303 13.1186C287.108 12.0547 288.237 11.2344 289.688 10.6577C291.15 10.081 292.86 9.79261 294.819 9.79261C297.712 9.79261 299.989 10.4041 301.65 11.6271C303.32 12.8501 304.295 14.5156 304.573 16.6236Z" fill="url(#paint0_linear_3_4)"/>
<defs>
<linearGradient id="paint0_linear_3_4" x1="152.5" y1="-8" x2="152.5" y2="43" gradientUnits="userSpaceOnUse">
<stop offset="0.264" stop-color="#0057FF"/>
<stop offset="1" stop-color="#00FFD1" stop-opacity="0"/>
</linearGradient>
</defs>
</svg>
